<svg xmlns="http://www.w3.org/2000/svg" viewBox="0 0 543.6 635.8"><defs><style>.a{fill:none;stroke:#ff780A;stroke-miterlimit:10;opacity:0.8;}</style></defs><path class="a" d="M389.3,168.1,232.2,270.7a8.8,8.8,0,0,1-13.7-7.4V9.4a8.8,8.8,0,0,0-13.6-7.5L4.6,129.9a8.9,8.9,0,0,0-4.1,7.5V403.8a8.8,8.8,0,0,0,13.6,7.5l148.7-95a8.9,8.9,0,0,1,10,.2L321.4,424.2a8.9,8.9,0,0,1,3.7,7.2v195a8.8,8.8,0,0,0,13.6,7.5L539,505.9a9.2,9.2,0,0,0,4.1-7.5V279.6a8.9,8.9,0,0,0-3.6-7.1l-140.1-104A8.7,8.7,0,0,0,389.3,168.1Z"/></svg>