<svg width="74" height="90" viewBox="0 0 74 90" fill="none" xmlns="http://www.w3.org/2000/svg">
<path fill-rule="evenodd" clip-rule="evenodd" d="M51.9405 23.4757L31.6349 37.1672C30.7885 37.7383 29.648 37.1314 29.648 36.1107V1.29562C29.648 0.261291 28.4939 -0.354649 27.635 0.220985L0.647731 18.3007C0.24297 18.5715 0 19.0267 0 19.5144L0.0130568 56.2505C0.0136245 57.2888 1.17398 57.9036 2.03232 57.3206L21.6368 44.0311C22.2125 43.6405 22.9714 43.6553 23.5318 44.068L42.8638 58.2993C43.1964 58.5446 43.3928 58.9329 43.3934 59.3467L43.4059 87.8043C43.4065 88.842 44.5668 89.4568 45.4252 88.8744L72.4005 70.5875C72.8013 70.3161 73.0409 69.8631 73.0409 69.3789V38.7067C73.0409 38.2424 72.8206 37.8058 72.4465 37.5305L53.3955 23.5058C52.9658 23.189 52.3833 23.1771 51.9405 23.4757Z" fill="#FF8300"/>
</svg>
